<svg id="Android_big" xmlns="http://www.w3.org/2000/svg" viewBox="0 0 256 256"><defs><style>.cls-1{fill:#a4c439;}.cls-2{fill:#fff;}</style></defs><title>android_v2</title><rect class="cls-1" width="256" height="256"/><g id="Android"><g id="C_" data-name="C#"><path class="cls-2" d="M67.55,98.43a10.38,10.38,0,0,0-10.39,10.34l0,43.29a10.43,10.43,0,0,0,20.85,0v-43.3A10.43,10.43,0,0,0,67.55,98.43m83.26-38.87L158,46.38A1.43,1.43,0,1,0,155.52,45l-7.29,13.31a50.37,50.37,0,0,0-40.46,0L100.47,45A1.43,1.43,0,1,0,98,46.39l7.22,13.17C91,66.87,81.41,80.8,81.42,96.79h93.12c0-16-9.56-29.89-23.72-37.22m-44,20.36a3.9,3.9,0,1,1,3.91-3.9,3.9,3.9,0,0,1-3.91,3.9m42.4,0a3.91,3.91,0,1,1,3.9-3.9,3.9,3.9,0,0,1-3.9,3.9M81.8,100.38l0,67.09a11,11,0,0,0,11,11h7.51v22.9a10.34,10.34,0,1,0,20.67,0V178.5h14v22.9a10.34,10.34,0,1,0,20.67,0v-22.9h7.54a11,11,0,0,0,11-11V100.37Zm117.08,8.37a10.34,10.34,0,1,0-20.67,0V152a10.34,10.34,0,1,0,20.67,0V108.75Z"/></g></g></svg>