<?xml version="1.0" encoding="utf-8"?>
<!-- Generator: Adobe Illustrator 19.0.1, SVG Export Plug-In . SVG Version: 6.00 Build 0)  -->
<svg version="1.1" id="Layer_1" xmlns="http://www.w3.org/2000/svg" xmlns:xlink="http://www.w3.org/1999/xlink" x="0px" y="0px"
	 viewBox="0 0 40 40" enable-background="new 0 0 40 40" xml:space="preserve">
<g>
	<path id="path8" fill="#FFFFFF" d="M20,5C11.729,5,5,11.729,5,20c0,8.272,6.729,15,15,15c8.271,0,15-6.729,15-15
		C35,11.729,28.271,5,20,5"/>
	<path id="path10" fill="#91DC47" d="M19.451,20.27c-0.135,0.292-0.283,0.62-0.437,0.969c-0.544,1.233-1.147,2.734-1.367,3.695
		c-0.079,0.342-0.128,0.767-0.127,1.237c0,0.186,0.01,0.382,0.026,0.581c0.77,0.283,1.601,0.438,2.469,0.44
		c0.79-0.002,1.549-0.132,2.26-0.368c-0.167-0.153-0.326-0.315-0.471-0.499C20.839,25.097,20.302,23.297,19.451,20.27"/>
	<path id="path12" fill="#91DC47" d="M15.895,14.167c-1.84,1.297-3.044,3.435-3.048,5.858c0.005,2.387,1.172,4.498,2.966,5.8
		c0.44-1.832,1.543-3.51,3.196-6.874c-0.098-0.27-0.21-0.565-0.335-0.875c-0.458-1.149-1.119-2.484-1.709-3.088
		C16.663,14.672,16.298,14.4,15.895,14.167"/>
	<path id="path14" fill="#63B132" d="M26.257,28.246c-0.949-0.119-1.733-0.263-2.418-0.504c-1.153,0.572-2.451,0.896-3.825,0.896
		c-4.756,0-8.611-3.855-8.612-8.612c0-2.581,1.137-4.895,2.936-6.473c-0.481-0.116-0.983-0.184-1.496-0.183
		c-2.527,0.024-5.194,1.422-6.305,5.199c-0.104,0.55-0.079,0.965-0.079,1.458c0,7.487,6.069,13.556,13.555,13.556
		c4.585,0,8.635-2.278,11.087-5.762c-1.327,0.331-2.602,0.489-3.695,0.492C26.997,28.311,26.613,28.289,26.257,28.246"/>
	<path id="path16" fill="#90B4FE" d="M23.71,25.619c0.084,0.041,0.273,0.109,0.537,0.184c1.776-1.304,2.931-3.404,2.935-5.778
		h-0.001c-0.007-3.958-3.209-7.16-7.168-7.168c-0.787,0.002-1.543,0.131-2.25,0.366c1.455,1.659,2.155,4.03,2.832,6.623
		c0,0.001,0.001,0.002,0.001,0.003c0.001,0.002,0.217,0.72,0.586,1.673c0.367,0.951,0.89,2.129,1.46,2.987
		C23.018,25.085,23.429,25.498,23.71,25.619"/>
	<path id="path18" fill="#5881D8" d="M20.014,6.469c-4.54,0-8.557,2.235-11.017,5.662c1.28-0.802,2.588-1.091,3.728-1.081
		c1.576,0.005,2.814,0.493,3.409,0.827c0.144,0.083,0.28,0.172,0.413,0.263c1.061-0.467,2.232-0.728,3.466-0.728
		c4.757,0.001,8.612,3.855,8.613,8.612h-0.001c0,2.398-0.981,4.566-2.562,6.128c0.388,0.043,0.802,0.071,1.225,0.068
		c1.501,0.001,3.124-0.331,4.341-1.354c0.793-0.668,1.458-1.647,1.826-3.114c0.072-0.567,0.114-1.143,0.114-1.729
		C33.569,12.539,27.501,6.469,20.014,6.469"/>
</g>
</svg>
