<?xml version="1.0" encoding="utf-8"?>
<!DOCTYPE svg PUBLIC "-//W3C//DTD SVG 1.1//EN" "http://www.w3.org/Graphics/SVG/1.1/DTD/svg11.dtd">
<svg version="1.1" id="Layer_1" xmlns="http://www.w3.org/2000/svg" xmlns:xlink="http://www.w3.org/1999/xlink" x="0px" y="0px" viewBox="0 0 200 200" enable-background="new 0 0 200 200" xml:space="preserve">
<g>
	<defs>
		<style>.cls-1{fill:#29344C;}</style>
		<rect id="SVGID_1_" x="43.5" y="56.53" width="113" height="90.921"/>
	</defs>
	<rect class="cls-1" width="200" height="200"/>
	<clipPath id="SVGID_2_">
		<use xlink:href="#SVGID_1_"  overflow="visible"/>
	</clipPath>
	<path clip-path="url(#SVGID_2_)" fill="#ffffff" d="M88.353,60.534c0.103,0.617-0.206,1.131-1.233,1.645
		c-1.336-0.719-4.214-1.13-6.578-0.925c-2.57,0.206-4.728,1.028-4.42,2.776c0.411,1.747,2.878,2.775,7.298,2.364
		c10.792-0.925,10.69-8.223,26.519-9.662c12.334-1.13,19.221,2.673,20.146,7.298c0.719,3.597-2.261,7.092-11.204,7.812
		c-7.914,0.719-12.539-1.439-12.951-3.597c-0.206-1.131,0.411-2.775,4.214-3.187c0.411,1.748,2.57,3.597,7.709,3.084
		c3.7-0.309,6.784-1.645,6.373-3.7c-0.411-2.158-4.317-3.392-10.484-2.878c-12.539,1.13-15.623,8.017-26.313,8.942
		c-7.606,0.719-13.773-2.056-14.596-6.167c-0.308-1.542-0.308-5.139,7.709-5.859C84.653,58.17,87.942,58.89,88.353,60.534
		 M48.267,103.499c-3.495,4.42-5.036,9.559-4.728,14.596c0.309,5.036,2.775,9.148,6.681,12.334
		c4.112,3.187,8.531,4.111,13.568,3.187c1.953-0.309,4.111-1.337,6.064-1.953c-4.111,0-7.606-1.336-11.1-4.111
		c-3.803-2.775-6.373-6.681-6.99-11.409c-0.925-4.42,0-8.531,2.467-12.129c2.775-3.495,6.373-5.448,11.101-6.064
		c4.728-0.308,8.839,0.925,12.951,3.803c-0.925-1.336-2.261-2.261-3.495-3.495c-4.112-2.775-8.531-4.112-13.979-2.775
		C55.873,96.509,51.761,99.079,48.267,103.499 M103.36,79.755c-13.259,0-25.08-1.336-33.611-3.187
		c-9.148-2.261-13.979-4.728-13.979-7.914c0-1.336,0.617-2.467,2.467-3.803c-5.756,2.261-8.84,4.112-8.84,6.99
		c0.309,3.187,5.448,6.373,15.932,8.84c9.867,2.467,22.51,3.803,37.722,3.803c15.521,0,27.855-1.337,37.723-3.803
		c10.484-2.467,15.52-5.756,15.52-8.84c0-2.261-2.261-4.42-6.373-6.064c0.925,0.617,1.645,1.645,1.645,2.775
		c0,3.187-4.728,5.756-14.287,7.915C128.439,78.419,117.133,79.755,103.36,79.755 M141.185,88.595
		c-9.868,2.261-22.51,3.803-37.723,3.803c-15.52,0-28.163-1.645-38.031-3.803c-8.84-2.261-13.568-4.728-15.212-7.298
		c1.645,11.101,5.448,21.585,10.484,30.836c3.803,5.756,7.606,10.792,11.409,16.24c1.645,3.186,2.775,6.373,3.495,9.559
		c2.467,3.495,6.064,5.756,10.484,6.989c5.448,1.953,11.101,2.775,16.857,2.467h0.617c5.756,0.308,11.82-0.617,17.371-2.467
		c4.111-1.336,7.606-3.495,10.176-6.989h0.308c0.617-3.187,1.645-6.373,3.187-9.559c3.803-5.448,7.606-10.484,11.409-16.24
		c5.037-9.148,8.531-19.632,10.484-30.836C154.444,84.175,149.716,86.642,141.185,88.595"/>
</g>
</svg>
