<?xml version="1.0" encoding="utf-8"?>
<!-- Generator: Adobe Illustrator 20.0.0, SVG Export Plug-In . SVG Version: 6.00 Build 0)  -->
<svg version="1.1" id="Ruby_big" xmlns="http://www.w3.org/2000/svg" xmlns:xlink="http://www.w3.org/1999/xlink" x="0px" y="0px"
	 viewBox="0 0 256 256" style="enable-background:new 0 0 256 256;" xml:space="preserve">
<style type="text/css">
	.st0{fill:#F6D2A2;}
	.st1{fill:#C6B198;}
	.st2{fill:#6AD7E5;}
	.st3{fill:#FFFFFF;}
</style>
<rect class="st0" width="256" height="256"/>
<title>ruby_v2</title>
<path class="st0" d="M75.1,134.1c0.2,4.4,4.6,2.3,6.5,1c1.9-1.3,2.4-0.2,2.6-2.8c0.1-1.7,0.3-3.4,0.2-5c-2.8-0.3-5.9,0.4-8.2,2.1
	C75,130.2,72.8,133,75.1,134.1"/>
<path class="st1" d="M75.1,134.1c0.6-0.2,1.3-0.4,1.7-1"/>
<path class="st2" d="M85.2,82.1c-16.7-4.7-4.3-25.9,9.1-17.2"/>
<path class="st2" d="M159.4,63.3c13.2-9.3,25.2,11.7,9.8,16.9"/>
<path class="st0" d="M162.2,187.7c3.4,2.1,9.5,8.4,4.5,11.4c-4.8,4.4-7.5-4.9-11.8-6.1"/>
<path class="st0" d="M102.3,194.8c-3.9,0.6-6.2,4.2-9.4,6c-3.1,1.8-4.3-0.6-4.6-1.1c-0.5-0.2-0.4,0.2-1.2-0.5c-2.9-4.5,3-7.8,6-10.1
	"/>
<path class="st0" d="M180.9,133.5c-0.2,4.4-4.6,2.3-6.5,1c-0.5-0.3-0.9-0.5-1.2-0.6c-1-0.4-0.9-7.2-0.6-7.2c2.5,0,5.1,0.7,7.2,2.2
	C181,129.7,183.2,132.4,180.9,133.5"/>
<path class="st1" d="M180.9,133.5c-0.6-0.2-1.3-0.4-1.7-1"/>
<path class="st2" d="M126.3,54.5c16.7,0,32.4,2.4,40.5,18.4c7.3,18,4.7,37.4,5.8,56.4c1,16.3,3.1,35.2-4.5,50.3
	c-8,15.9-27.9,19.9-44.3,19.3c-12.9-0.5-28.5-4.7-35.7-16.4c-8.5-13.8-4.5-34.4-3.9-49.7c0.7-18.2-4.9-36.5,1-54.3
	C91.6,60.1,108.3,55.9,126.3,54.5"/>
<path class="st3" d="M129.3,77c3,17.4,31.5,12.8,27.4-4.8C153,56.4,128.3,60.8,129.3,77"/>
<path d="M142.8,88.9c-1.8,0-3.7-0.3-5.4-0.9c-5-1.7-8.2-5.6-9.1-10.9l0-0.1c-0.6-9.2,6.5-14.5,13.3-15.5c6.6-1,14.1,1.9,16.1,10.4
	c1.2,5.1-0.1,9.7-3.7,12.9C151,87.5,146.9,88.9,142.8,88.9z M130.3,76.8c0.8,4.5,3.6,7.9,7.8,9.3c4.9,1.7,10.9,0.6,14.5-2.7
	c2.1-1.9,4.4-5.4,3.1-11c-1.7-7.3-8.2-9.7-13.9-8.9C135.9,64.4,129.8,68.9,130.3,76.8z"/>
<path class="st3" d="M95.2,79.8c3.9,15.2,28.2,11.3,27.3-3.9C121.4,57.6,91.5,61.1,95.2,79.8"/>
<path d="M108.3,90.4c-5.9,0-12.2-3-14-10.4l0-0.1c-1.1-5.6,0.5-10.4,4.6-13.6c4.6-3.7,11.5-4.6,16.9-2.2c4.7,2.1,7.4,6.2,7.8,11.6
	c0.5,8.5-6.2,13.4-12.6,14.4C110,90.3,109.2,90.4,108.3,90.4z M96.2,79.6c1.9,7.2,8.6,9.6,14.4,8.7c5.7-0.9,11.4-5.1,10.9-12.3
	c-0.3-4.6-2.6-8.1-6.6-9.9c-4.7-2.1-10.8-1.3-14.9,1.9C96.6,70.6,95.2,74.8,96.2,79.6z"/>
<path class="st3" d="M132.7,97.9c0,2.3,0.5,4.8,0.1,7.2c-0.6,1.1-1.7,1.2-2.7,1.7c-1.4-0.2-2.5-1.1-3-2.4c-0.3-2.8,0.1-5.4,0.2-8.2
	L132.7,97.9z"/>
<ellipse cx="101.9" cy="77.3" rx="4.1" ry="4.4"/>
<ellipse class="st3" cx="103.8" cy="78.3" rx="1" ry="1.1"/>
<ellipse cx="136.3" cy="76.2" rx="4" ry="4.4"/>
<ellipse class="st3" cx="138.1" cy="77.2" rx="1" ry="1.1"/>
<path class="st3" d="M121,97.6c-1.8,4.3,1,13,5.9,6.6c-0.3-2.8,0.1-5.4,0.2-8.2L121,97.6z"/>
<path class="st0" d="M121.6,89.3c-3.3,0.3-6.1,4.3-4.3,7.4c2.3,4.2,7.4-0.4,10.6,0.1c3.7,0.1,6.7,3.9,9.6,0.7c3.3-3.6-1.4-7-5.1-8.6
	L121.6,89.3z"/>
<g>
	<path d="M180.3,128c-1.9-1.4-4.3-2.2-6.8-2.3c-0.1-4-0.2-8-0.2-11.9c-0.1-10.9-0.1-22.1-2.9-32.9c5.4-2.2,6.7-6.2,6.9-8.4
		c0.4-4.2-2-8.7-5.8-10.9c-3.7-2.2-8-1.9-12.1,0.6c-8.9-7.3-21-8.5-33.2-8.5l-0.1,0c-11.9,0.9-23.7,3-32.1,10.1
		c-4.2-2.4-8.6-2.4-12.4,0c-3.9,2.5-6,6.9-5.4,11c0.3,2.1,1.7,5.7,6.9,7.8c-2.5,10.3-1.6,20.9-0.7,31.1c0.3,4.1,0.7,8.4,0.8,12.6
		c-2.8,0-5.6,0.8-7.7,2.3c-1.1,0.8-2.7,2.6-2.5,4.4c0.1,0.7,0.4,1.3,1.1,1.8c0.2,1.6,1,2.4,1.7,2.7c0.5,0.2,1,0.3,1.5,0.3
		c2,0,4.1-1.3,4.8-1.9c0.4-0.3,0.7-0.4,0.9-0.5c-0.1,2.3-0.3,4.7-0.5,7.2c-1.1,13.7-2.3,29.3,4.7,40.6c1.3,2.1,2.8,4,4.5,5.6
		c-0.2,0.1-0.3,0.2-0.5,0.3c-3.1,2.2-8.3,5.8-5.2,10.7l0.1,0.2c0.5,0.5,0.8,0.7,1.3,0.8c0.4,0.6,1,1.4,2.2,1.7
		c0.3,0.1,0.6,0.1,0.9,0.1c0.8,0,1.7-0.3,2.6-0.8c1.3-0.7,2.5-1.7,3.6-2.6c1.7-1.5,3.4-2.9,5.5-3.2c0.1,0,0.3-0.1,0.4-0.1
		c8,3.4,16.5,4.2,21.1,4.4c0.9,0,1.8,0.1,2.9,0.1c7.3,0,18.6-1,28.2-6c1.2,0.6,2.3,1.9,3.4,3.2c1.6,1.9,3.3,3.8,5.4,4
		c0.1,0,0.2,0,0.2,0c1.1,0,2.1-0.5,3.2-1.4c1.9-1.2,2.3-2.7,2.3-3.8c0-3.2-3.4-6.7-5.8-8.5c2.1-2.1,3.9-4.6,5.3-7.5
		c6.7-13.5,5.9-29.9,5-44.6c0.9,0.6,2.8,1.6,4.5,1.6c0.5,0,1-0.1,1.5-0.3c0.7-0.3,1.5-1.1,1.7-2.7c0.6-0.4,1-1.1,1.1-1.8
		C183,130.6,181.4,128.8,180.3,128z M170.5,63.2c3.2,1.9,5.2,5.6,4.8,9c-0.3,2.9-2.2,5.3-5.4,6.7c-0.6-2.1-1.3-4.2-2.2-6.3
		c0.9-1,1.2-2.2,0.4-3.8c-0.9-1.7-2.3-2-3.8-1.7c-1-1.3-2.1-2.5-3.3-3.6C165.4,61,168.8,62.2,170.5,63.2z M78.3,74.4
		c-0.5-3.3,1.4-7,4.5-9c2.9-1.9,6.4-2,9.8-0.3c-1.4,1.4-2.7,2.9-3.9,4.7c-2-0.9-4-0.9-5.2,1.2c-1.2,2.3,0,3.8,1.9,5
		c-0.3,0.8-0.6,1.5-0.9,2.4c-0.3,0.8-0.5,1.5-0.7,2.3C80.6,79.2,78.7,77.1,78.3,74.4z M82.8,133.4c-0.4,0.1-1,0.3-1.7,0.9
		c-1.4,1-3.4,1.8-4.3,1.4c-0.3-0.1-0.4-0.4-0.6-0.9c0.5-0.2,1-0.5,1.4-1c0.3-0.4,0.2-1.1-0.2-1.4c-0.4-0.3-1.1-0.2-1.4,0.2
		c-0.2,0.2-0.4,0.3-0.8,0.5c-0.1-0.1-0.1-0.2-0.1-0.3c-0.1-0.7,0.9-2,1.7-2.6c1.7-1.3,4.1-2,6.5-2c0,0,0,0,0.1,0c0,0.8,0,1.7,0,2.5
		c0,0.1,0,0.2,0,0.3c0,0.4-0.1,0.8-0.1,1.2c-0.1,0.9-0.1,1.1-0.1,1C83.1,133.3,83,133.3,82.8,133.4z M95.6,197.5
		c-1.1,0.9-2.1,1.8-3.3,2.4c-0.8,0.5-1.4,0.6-2,0.5c-0.5-0.1-0.8-0.5-1-0.9c0.1-0.7,0.6-1.4,1-2.1c0.4-0.5,0.7-1.1,1-1.7
		c0.2-0.5,0-1.1-0.5-1.3c-0.5-0.2-1.1,0-1.3,0.5c-0.2,0.5-0.5,0.9-0.8,1.4c-0.4,0.5-0.8,1.1-1,1.8c-1.3-2.8,1.3-4.9,4.9-7.5
		c0.3-0.2,0.6-0.4,0.8-0.6c2.1,1.7,4.3,3.2,6.7,4.3C98.3,195.2,96.9,196.3,95.6,197.5z M167.6,196.1c0,0.5-0.2,1-0.5,1.4
		c0-0.1-0.1-0.2-0.1-0.2c-0.4-1.1-0.9-2.3-1.9-3.3c-0.4-0.4-1-0.4-1.4,0c-0.4,0.4-0.4,1,0,1.4c0.7,0.6,1,1.6,1.4,2.5
		c0.1,0.3,0.2,0.6,0.3,0.9c-0.5,0.3-1,0.5-1.4,0.5c-1.3-0.1-2.7-1.7-4-3.3c-0.9-1.1-1.9-2.2-3-3c1.9-1.1,3.7-2.5,5.4-4
		C164.7,190.7,167.6,193.8,167.6,196.1z M85.6,81.2c0.2-0.8,0.4-1.5,0.7-2.3c1.9-5.6,4.8-9.8,8.4-13.1c0.2-0.1,0.4-0.2,0.5-0.4
		c0,0,0-0.1,0-0.1c8.1-6.9,19.5-8.9,31.2-9.9c11.9,0,23.7,1.2,32.2,8.4c0,0,0,0,0,0c0.1,0.1,0.2,0.2,0.4,0.3c2.7,2.4,5.1,5.4,7,9.1
		c0.9,2.2,1.6,4.5,2.3,6.7c0,0.2,0,0.3,0,0.5c0,0.1,0.1,0.2,0.2,0.3c2.8,10.7,2.8,21.9,2.9,32.8c0,4.1,0.1,8.4,0.2,12.6
		c0,0.1-0.1,0.2-0.1,0.4c-0.1,0.8-0.2,2.5-0.1,4.1c0.1,1.7,0.3,2.6,0.6,3.2c0,0.1,0,0.1,0,0.2c1,14.8,2,31.6-4.7,45.1
		c-1.5,3-3.4,5.5-5.6,7.6c-0.1,0.1-0.3,0.2-0.4,0.3c0,0,0,0,0,0c-2,1.9-4.3,3.5-6.7,4.8c-0.2,0-0.4,0.1-0.5,0.3
		c-10.6,5.6-23.6,6-30.2,5.8c-7.7-0.3-26.5-2.4-34.9-16c-6.7-10.8-5.4-26-4.4-39.4c0.3-3.4,0.5-6.7,0.7-9.8c0-0.7,0-1.4,0.1-2.1
		c0.1-1.2,0.2-2.4,0.1-3.7l0-0.9l-0.1,0c-0.1-4.3-0.5-8.7-0.8-12.9c-0.8-10-1.7-20.3,0.6-30.3C85.2,83.1,85.6,81.2,85.6,81.2z
		 M179.2,135.1c-0.9,0.4-2.9-0.4-4.3-1.4c-0.4-0.2-0.7-0.4-0.9-0.5c-0.1-1.3-0.2-2.6-0.2-3.8c0-0.5,0-1.1-0.1-1.6
		c2.1,0.2,4,0.8,5.5,1.9c0.8,0.6,1.8,1.9,1.7,2.6c0,0.1,0,0.2-0.1,0.3c-0.4-0.1-0.7-0.3-0.8-0.5c-0.3-0.4-1-0.5-1.4-0.2
		c-0.4,0.3-0.5,1-0.2,1.4c0.4,0.5,0.9,0.8,1.4,1C179.6,134.6,179.5,134.9,179.2,135.1z"/>
	<path d="M139.6,94c-0.7-3-4.4-5.1-6.2-5.9c0-0.2,0-0.5-0.1-0.7c-1.2-4.6-11.3-4.2-12,0.9c0,0-0.1,0-0.1,0c-1.9,0.3-3.6,1.6-4.6,3.4
		c-1,1.8-1,3.8-0.1,5.4c0.8,1.4,1.9,2,3,2.2c-0.7,2.9,0.4,6.4,2.7,7.8c0.4,0.2,0.9,0.4,1.5,0.4c0.9,0,2-0.4,3.2-1.7
		c0.8,1,1.9,1.7,3.2,1.9l0.3,0l0.3-0.1c0.2-0.1,0.4-0.2,0.7-0.3c0.8-0.3,1.9-0.7,2.5-1.8l0.1-0.3c0.3-1.7,0.2-3.4,0.1-5.1
		c0-0.3,0-0.5-0.1-0.6c0.4,0.1,0.7,0.1,1.1,0.1c1.1,0,2.3-0.4,3.4-1.6C139.7,96.5,139.8,95,139.6,94z M125.8,104
		c-0.7,0.9-1.8,1.9-2.7,1.4c-1.2-0.7-2-3.7-1.5-6.1c0.9-0.2,1.9-0.5,2.7-0.8c0.6-0.2,1.1-0.4,1.7-0.5c0,0.2,0,0.5-0.1,0.7
		C125.8,100.4,125.6,102.1,125.8,104z M131.8,100.3c0.1,1.5,0.2,3,0,4.4c-0.3,0.4-0.7,0.5-1.3,0.8c-0.2,0.1-0.3,0.1-0.5,0.2
		c-0.9-0.2-1.6-0.8-2-1.6c-0.2-1.7-0.1-3.4,0.1-5.2c0-0.4,0.1-0.8,0.1-1.2c1,0.1,2.1,0.5,3.1,0.9c0.1,0.1,0.3,0.1,0.5,0.2
		C131.8,99.4,131.8,99.9,131.8,100.3z M136.8,96.7c-1.3,1.4-2.5,1-4.7,0.1c-1.2-0.5-2.6-1.1-4.1-1.1c-1.4-0.2-2.9,0.4-4.3,0.9
		c-3,1-4.5,1.3-5.5-0.4c-0.6-1-0.5-2.3,0.1-3.5c0.7-1.3,2.1-2.3,3.4-2.4l0.1,0c1.9,2.2,8.4,1.9,10.7-0.3c2.4,1.1,4.8,2.8,5.1,4.5
		C137.8,95.2,137.5,96,136.8,96.7z"/>
</g>
</svg>
