<?xml version="1.0" encoding="UTF-8" standalone="no"?>
<svg width="256px" height="256px" viewBox="0 0 256 256" version="1.1" xmlns="http://www.w3.org/2000/svg" xmlns:xlink="http://www.w3.org/1999/xlink" xmlns:sketch="http://www.bohemiancoding.com/sketch/ns">
    <!-- Generator: Sketch 3.5.1 (25234) - http://www.bohemiancoding.com/sketch -->
    <title>haskell</title>
    <desc>Created with Sketch.</desc>
    <defs>
        <path id="path-1" d="M0,110.725348 L156.964374,110.725348 L156.964374,0 L0,0 L0,110.725348 L0,110.725348 Z"></path>
    </defs>
    <g id="Page-1" stroke="none" stroke-width="1" fill="none" fill-rule="evenodd" sketch:type="MSPage">
        <g id="Square-Runtimes" sketch:type="MSArtboardGroup" transform="translate(-3614.000000, -70.000000)">
            <g id="haskell" sketch:type="MSLayerGroup" transform="translate(3614.000000, 70.000000)">
                <g id="Group">
                    <path d="M0,256 L256,256 L256,0 L0,0 L0,256" id="back" fill="#643285" sketch:type="MSShapeGroup"></path>
                    <g id="Haskell-Logo" transform="translate(50.000000, 73.000000)">
                        <g id="surface0">
                            <g id="Clipped">
                                <mask id="mask-2" sketch:name="Shape" fill="white">
                                    <use xlink:href="#path-1"></use>
                                </mask>
                                <g id="Shape"></g>
                                <g id="Group" mask="url(#mask-2)" fill="#FFFFFF" sketch:type="MSShapeGroup">
                                    <path d="M0,110.725348 L36.9330184,55.3626741 L0,0 L27.6994455,0 L64.6324639,55.3626741 L27.6994455,110.725348 L0,110.725348 L0,110.725348 Z" id="Shape"></path>
                                    <path d="M36.9330184,110.725348 L73.8660369,55.3626741 L36.9330184,0 L64.6324639,0 L138.497228,110.725348 L110.797783,110.725348 L87.7157596,76.1243127 L64.6324639,110.725348 L36.9330184,110.725348 L36.9330184,110.725348 Z" id="Shape"></path>
                                    <path d="M126.187071,78.4308787 L113.876913,59.9770779 L156.964374,59.9758065 L156.964374,78.4308787 L126.187071,78.4308787 L126.187071,78.4308787 Z" id="Shape"></path>
                                    <path d="M107.721198,50.7495418 L95.4097671,32.295741 L156.964374,32.2944696 L156.964374,50.7495418 L107.721198,50.7495418 L107.721198,50.7495418 Z" id="Shape"></path>
                                </g>
                            </g>
                        </g>
                    </g>
                </g>
            </g>
        </g>
    </g>
</svg>